<svg fill="none" stroke="currentColor" stroke-width="2"
     stroke-linecap="round" stroke-linejoin="round"
     id="svg" version="1.1" xmlns="http://www.w3.org/2000/svg" width="400"
     height="400" viewBox="0, 0, 400,400">
    <g id="svgg">
        <path id="path0"
              d="M102.252 53.873 L 100.977 55.012 100.854 61.835 C 100.710 69.867,101.020 71.134,103.366 72.115 C 107.472 73.830,108.983 71.320,108.984 62.780 C 108.985 53.426,106.474 50.104,102.252 53.873 M69.727 64.516 C 66.072 66.526,66.753 69.016,72.634 75.149 C 78.569 81.339,81.138 82.570,83.400 80.307 C 85.948 77.759,85.407 76.576,78.601 69.824 C 72.500 63.771,71.820 63.365,69.727 64.516 M131.384 69.606 C 125.240 75.697,124.582 76.758,125.534 79.037 C 127.244 83.130,130.030 82.262,136.769 75.536 L 142.188 70.128 142.188 68.228 C 142.188 65.803,140.592 64.063,138.368 64.063 C 137.099 64.063,136.477 64.556,131.384 69.606 M285.547 65.030 C 276.946 66.613,272.538 68.592,265.401 74.075 C 256.820 80.666,250.141 92.156,247.996 104.013 C 247.459 106.983,247.260 106.971,246.294 103.906 C 237.191 75.044,207.139 62.630,179.668 76.384 C 175.189 78.627,174.911 84.766,179.288 84.766 C 190.542 84.766,210.341 95.013,223.311 107.550 C 228.805 112.860,228.841 112.936,225.112 111.349 C 198.046 99.831,167.250 115.006,158.067 144.385 C 153.405 159.298,156.892 164.455,165.847 155.894 C 178.430 143.865,204.679 133.999,221.875 134.837 L 224.414 134.961 220.248 137.451 C 201.384 148.724,192.501 168.526,196.307 190.820 C 197.974 200.587,200.676 204.387,204.592 202.472 C 205.877 201.844,206.458 201.002,209.397 195.508 C 218.584 178.333,227.862 166.025,244.067 149.512 C 246.755 146.772,249.003 144.531,249.061 144.531 C 249.894 144.531,257.203 159.042,259.889 166.027 C 273.782 202.159,269.237 248.171,248.334 283.008 C 243.661 290.796,242.889 291.681,240.332 292.180 C 225.429 295.092,212.602 299.107,200.977 304.499 C 192.055 308.637,184.331 312.562,177.930 316.210 C 157.646 327.769,142.488 333.730,126.367 336.489 C 120.576 337.480,118.444 342.061,122.841 344.065 C 129.025 346.883,161.031 335.703,182.813 323.115 C 236.723 291.962,287.116 289.683,334.864 316.239 C 340.214 319.214,343.570 312.301,338.392 308.973 C 324.961 300.343,300.280 292.609,280.447 290.814 L 277.496 290.548 278.407 286.582 C 283.346 265.076,283.698 228.989,279.240 201.172 C 277.100 187.819,271.553 167.215,268.478 161.194 C 267.643 159.558,268.107 159.509,269.998 161.034 C 270.923 161.780,275.020 164.731,279.102 167.593 C 291.512 176.292,300.255 183.677,303.930 188.565 C 308.013 193.995,312.431 193.409,312.815 187.387 C 314.376 162.864,299.710 139.788,278.208 132.939 C 273.901 131.567,274.575 131.313,282.617 131.278 C 300.680 131.200,320.650 136.128,334.009 143.960 C 340.670 147.865,344.269 144.419,341.380 136.905 C 330.345 108.213,299.515 95.683,272.885 109.067 L 269.793 110.621 271.849 108.142 C 284.684 92.673,299.348 79.386,308.111 75.285 C 312.085 73.425,313.289 70.128,310.869 67.731 C 308.311 65.197,293.326 63.599,285.547 65.030 M293.123 74.484 C 283.847 81.455,270.503 95.509,259.218 110.189 C 254.136 116.801,254.223 116.812,255.480 109.736 C 259.614 86.467,272.796 73.568,292.927 73.096 L 295.034 73.047 293.123 74.484 M99.675 79.115 C 88.353 81.572,79.831 93.289,81.075 104.688 C 83.264 124.734,106.780 133.679,121.200 119.950 C 138.830 103.164,123.435 73.957,99.675 79.115 M208.815 79.714 C 223.274 82.316,233.574 92.497,239.054 109.605 C 240.554 114.289,240.540 114.299,237.634 110.625 C 227.298 97.559,212.569 86.268,199.805 81.625 C 194.098 79.549,194.208 79.297,200.821 79.297 C 203.943 79.297,207.540 79.485,208.815 79.714 M111.403 88.422 C 123.211 94.085,123.572 110.555,112.014 116.338 C 96.454 124.124,81.792 104.128,93.915 91.654 C 98.248 87.195,105.897 85.782,111.403 88.422 M57.153 98.478 C 53.667 99.486,53.351 103.913,56.646 105.566 C 58.440 106.466,69.573 106.569,71.641 105.705 C 75.280 104.185,74.979 99.510,71.174 98.453 C 69.403 97.961,58.874 97.980,57.153 98.478 M138.391 98.565 C 134.759 99.890,134.584 104.226,138.104 105.697 C 139.950 106.468,151.050 106.474,152.891 105.705 C 156.556 104.174,156.262 99.658,152.423 98.507 C 150.427 97.909,140.071 97.952,138.391 98.565 M301.656 113.066 C 311.359 114.796,319.787 119.937,326.859 128.438 C 329.541 131.663,329.478 131.759,325.684 130.237 C 310.088 123.978,285.140 121.268,269.531 124.138 C 267.275 124.553,265.377 124.849,265.313 124.796 C 265.248 124.744,266.742 123.572,268.633 122.194 C 279.992 113.910,290.342 111.049,301.656 113.066 M216.602 117.743 C 221.482 119.173,235.060 126.082,234.303 126.750 C 234.235 126.810,232.158 126.689,229.688 126.481 C 209.919 124.819,185.741 130.809,170.355 141.180 C 167.704 142.967,167.641 142.873,169.320 139.651 C 178.614 121.822,198.722 112.504,216.602 117.743 M74.523 127.637 C 67.141 134.833,66.240 136.612,68.720 139.093 C 71.223 141.596,72.369 141.078,78.989 134.458 C 85.684 127.764,86.034 126.971,83.438 124.375 C 80.981 121.919,80.032 122.266,74.523 127.637 M127.256 123.656 C 123.689 125.592,124.425 128.056,130.371 134.081 C 136.969 140.766,138.604 141.534,141.046 139.093 C 143.549 136.589,143.032 135.443,136.411 128.823 C 130.198 122.610,129.701 122.329,127.256 123.656 M103.320 133.572 C 101.122 134.472,100.977 135.056,100.977 142.981 C 100.977 151.167,101.256 152.157,103.753 152.804 C 107.731 153.835,108.758 152.017,108.913 143.672 C 109.084 134.465,107.617 131.814,103.320 133.572 M240.799 140.467 C 239.330 142.109,236.184 145.499,233.810 148.000 C 220.867 161.632,211.615 173.592,206.340 183.510 L 204.411 187.138 204.159 184.723 C 201.971 163.796,214.596 146.695,238.021 138.853 C 244.186 136.789,244.124 136.753,240.799 140.467 M266.325 138.679 C 286.500 142.332,297.950 152.836,302.356 171.731 C 302.779 173.546,303.125 175.129,303.125 175.249 C 303.125 175.369,301.768 174.200,300.109 172.652 C 296.209 169.009,294.486 167.706,284.375 160.749 C 270.275 151.048,261.348 144.141,256.836 139.440 L 254.883 137.405 258.513 137.663 C 260.509 137.805,264.025 138.262,266.325 138.679 M274.564 241.504 C 274.739 256.060,272.925 275.060,270.280 286.365 L 269.494 289.723 262.795 289.986 C 259.111 290.131,255.431 290.356,254.619 290.486 L 253.142 290.722 255.121 287.451 C 263.558 273.506,272.257 249.638,273.645 236.621 C 274.098 232.371,274.478 234.389,274.564 241.504 M87.695 251.359 C 84.443 252.075,81.679 253.229,77.346 255.679 C 72.989 258.143,69.519 259.512,66.009 260.153 C 60.156 261.220,58.399 263.946,61.539 267.086 L 62.922 268.469 65.934 268.246 C 69.752 267.965,73.015 266.825,79.916 263.365 C 91.039 257.788,95.605 257.744,106.085 263.113 C 120.845 270.676,129.079 270.662,142.969 263.049 C 150.051 259.167,154.883 258.223,160.522 259.619 C 163.039 260.243,164.245 260.781,172.049 264.768 C 183.054 270.389,191.905 270.092,204.688 263.672 C 212.574 259.711,214.107 259.271,220.508 259.140 L 225.977 259.028 227.051 257.828 C 230.189 254.323,227.405 251.360,220.551 250.910 C 214.289 250.499,210.479 251.551,201.474 256.181 C 190.638 261.752,183.449 261.845,173.828 256.537 C 160.007 248.913,153.316 248.729,139.844 255.602 C 126.943 262.184,122.760 262.217,109.961 255.838 C 100.029 250.888,94.703 249.817,87.695 251.359 M88.672 278.372 C 85.549 278.966,82.730 280.058,77.148 282.833 C 70.732 286.024,67.529 287.109,64.527 287.109 C 60.224 287.109,58.616 292.565,62.336 294.545 C 65.384 296.167,71.644 294.701,80.078 290.389 C 90.996 284.808,95.020 284.869,106.767 290.791 C 120.740 297.836,128.290 297.828,142.070 290.751 C 153.862 284.695,157.434 284.702,169.727 290.805 C 181.662 296.730,189.062 296.983,189.063 291.466 C 189.063 288.881,187.713 287.656,184.483 287.310 C 180.482 286.881,177.392 285.769,170.932 282.431 C 158.993 276.263,152.417 276.454,138.909 283.362 C 126.742 289.584,120.027 289.373,108.203 282.397 C 102.757 279.184,93.945 277.368,88.672 278.372 M88.281 307.980 C 84.983 308.678,82.905 309.524,76.879 312.622 C 72.055 315.102,68.843 316.122,64.562 316.533 C 61.514 316.826,59.834 318.668,60.308 321.197 C 61.225 326.082,68.753 325.595,80.085 319.918 C 90.829 314.536,95.886 314.541,106.056 319.945 C 113.806 324.062,120.129 325.740,123.146 324.479 C 127.188 322.790,126.128 316.797,121.787 316.797 C 118.887 316.797,114.450 315.286,109.158 312.498 C 100.397 307.882,94.636 306.636,88.281 307.980 "
              stroke="none" fill="none" fill-rule="evenodd"></path>
        <path id="path1"
              d="M0.000 200.000 L 0.000 400.000 200.000 400.000 L 400.000 400.000 400.000 200.000 L 400.000 0.000 200.000 0.000 L 0.000 0.000 0.000 200.000 M106.947 53.344 C 108.717 54.584,108.984 55.785,108.984 62.493 C 108.984 70.910,107.872 73.194,104.117 72.490 C 101.223 71.947,100.977 71.174,100.977 62.632 L 100.977 55.014 102.252 53.874 C 103.704 52.577,105.554 52.368,106.947 53.344 M73.006 64.431 C 74.478 65.219,84.351 75.353,84.595 76.327 C 85.256 78.962,83.429 81.250,80.664 81.250 C 77.645 81.250,67.578 71.041,67.578 67.979 C 67.578 65.206,70.674 63.183,73.006 64.431 M140.579 64.699 C 143.935 67.050,143.152 69.195,136.550 75.742 C 130.529 81.711,129.155 82.397,126.679 80.663 C 123.624 78.523,124.529 76.402,131.402 69.588 C 137.427 63.614,138.337 63.129,140.579 64.699 M299.229 64.474 C 304.415 65.119,309.740 66.594,310.835 67.688 C 313.061 69.914,312.050 73.602,308.836 74.980 C 301.245 78.234,287.082 90.568,275.397 104.102 C 273.171 106.680,270.991 109.192,270.553 109.683 C 269.919 110.396,270.589 110.181,273.843 108.632 C 300.796 95.796,331.173 108.839,341.782 137.800 C 344.465 145.125,340.410 147.555,332.678 143.255 C 318.717 135.492,296.230 130.420,280.469 131.481 L 275.195 131.836 278.516 132.959 C 299.354 140.003,311.638 158.072,312.772 183.350 C 313.094 190.541,312.271 192.188,308.350 192.188 C 306.823 192.188,306.111 191.579,303.132 187.729 C 300.011 183.694,290.834 175.854,282.268 169.903 C 279.963 168.302,275.847 165.386,273.121 163.422 C 267.611 159.454,267.590 159.446,268.712 161.645 C 270.955 166.040,275.735 182.718,278.082 194.336 C 283.711 222.197,283.977 261.034,278.704 285.420 C 278.169 287.898,277.651 290.054,277.554 290.211 C 277.456 290.368,279.523 290.706,282.146 290.961 C 301.651 292.861,332.235 302.944,339.620 309.909 C 343.387 313.461,339.296 318.801,334.766 316.245 C 304.103 298.949,266.591 293.692,232.831 301.961 C 217.918 305.613,200.687 312.894,183.398 322.849 C 156.928 338.091,124.309 348.418,121.260 342.521 C 119.575 339.263,121.361 337.312,126.964 336.293 C 143.422 333.299,157.521 327.767,177.141 316.603 C 199.898 303.654,220.382 295.690,239.962 292.177 L 242.619 291.701 244.546 288.845 C 272.754 247.044,275.556 188.795,251.314 148.170 L 249.054 144.383 242.271 151.390 C 227.251 166.909,217.154 180.621,208.491 197.266 C 203.422 207.005,198.787 204.642,196.231 191.016 C 192.141 169.216,201.876 147.839,220.797 137.072 C 224.811 134.787,224.672 134.618,219.043 134.935 C 199.045 136.061,177.915 144.423,165.702 156.044 C 160.911 160.604,159.443 161.084,157.188 158.828 C 155.613 157.254,155.459 155.452,156.472 150.472 C 163.241 117.196,196.372 98.587,225.730 111.571 C 226.886 112.082,227.938 112.500,228.067 112.500 C 228.657 112.500,221.233 105.452,217.188 102.171 C 205.859 92.982,192.108 86.425,181.445 85.127 C 174.872 84.327,173.956 79.253,179.850 76.285 C 208.257 61.980,236.145 74.328,247.088 106.055 C 247.281 106.615,247.517 106.062,247.921 104.102 C 253.326 77.862,274.622 61.414,299.229 64.474 M289.241 73.444 C 269.768 75.500,257.834 89.606,254.897 114.038 L 254.641 116.162 258.134 111.499 C 268.161 98.110,282.639 82.599,291.498 75.752 L 294.999 73.047 293.495 73.100 C 292.669 73.129,290.754 73.284,289.241 73.444 M110.502 79.115 C 128.527 83.364,134.976 106.091,121.938 119.408 C 108.476 133.158,85.417 126.117,81.400 107.031 C 77.892 90.362,93.737 75.163,110.502 79.115 M195.898 79.779 C 196.328 80.081,198.174 80.907,200.000 81.613 C 213.194 86.716,228.642 98.630,237.874 110.824 C 240.544 114.349,240.571 114.302,238.847 109.132 C 233.631 93.486,224.518 83.774,211.914 80.428 C 207.923 79.369,194.545 78.826,195.898 79.779 M100.754 87.621 C 91.625 90.196,86.839 100.754,90.983 109.173 C 95.716 118.786,108.401 120.940,115.936 113.410 C 126.983 102.371,115.801 83.377,100.754 87.621 M71.641 98.592 C 73.262 99.269,74.219 100.589,74.219 102.148 C 74.219 105.435,72.199 106.250,64.056 106.250 C 55.327 106.250,52.117 104.067,54.933 100.047 C 56.318 98.070,67.965 97.055,71.641 98.592 M152.891 98.592 C 154.512 99.269,155.469 100.589,155.469 102.148 C 155.469 105.435,153.449 106.250,145.306 106.250 C 136.577 106.250,133.367 104.067,136.183 100.047 C 137.568 98.070,149.215 97.055,152.891 98.592 M288.716 112.941 C 283.167 113.862,275.721 117.174,270.000 121.266 C 264.528 125.178,264.591 124.948,269.213 124.150 C 285.983 121.254,307.065 123.374,324.219 129.681 C 329.477 131.615,329.200 131.589,328.104 130.045 C 319.336 117.691,302.953 110.577,288.716 112.941 M199.394 116.977 C 186.150 119.383,173.557 129.298,168.562 141.254 C 167.953 142.711,168.029 142.709,170.117 141.202 C 178.776 134.956,199.014 127.879,212.096 126.524 C 216.501 126.068,231.460 126.239,233.594 126.770 C 234.871 127.088,228.760 123.079,225.000 121.133 C 216.906 116.944,207.754 115.458,199.394 116.977 M82.817 123.697 C 86.401 125.815,85.722 127.726,78.989 134.458 C 72.369 141.078,71.223 141.596,68.720 139.093 C 66.263 136.636,67.030 135.034,73.926 128.223 C 79.623 122.596,80.337 122.233,82.817 123.697 M134.414 126.617 C 138.714 130.524,142.163 134.430,142.231 135.469 C 142.497 139.558,139.046 141.541,135.636 139.260 C 133.235 137.654,125.547 129.251,125.301 127.965 C 124.986 126.313,125.707 124.644,127.102 123.793 C 129.347 122.424,130.133 122.727,134.414 126.617 M107.513 134.342 L 108.789 135.481 108.910 142.648 C 109.049 150.891,108.661 152.175,105.814 152.885 C 101.811 153.884,100.722 151.586,100.866 142.448 L 100.977 135.481 102.252 134.342 C 103.976 132.803,105.790 132.803,107.513 134.342 M238.539 138.699 C 215.590 146.238,202.862 162.535,204.108 182.787 L 204.383 187.253 205.652 184.740 C 211.216 173.723,218.798 163.972,237.062 144.347 C 240.581 140.565,243.394 137.405,243.312 137.325 C 243.231 137.245,241.083 137.863,238.539 138.699 M256.445 139.050 C 260.809 143.649,271.417 151.845,284.766 160.932 C 292.423 166.144,298.187 170.506,300.000 172.461 C 300.537 173.040,301.440 173.846,302.007 174.253 L 303.038 174.991 302.311 171.729 C 297.632 150.727,283.387 139.774,258.008 137.663 L 254.883 137.404 256.445 139.050 M273.534 237.785 C 271.544 252.463,261.581 278.615,253.791 289.609 L 252.988 290.742 254.131 290.490 C 254.759 290.351,258.458 290.123,262.350 289.982 L 269.427 289.727 270.289 285.977 C 273.062 273.916,275.116 249.574,274.315 238.281 L 274.023 234.180 273.534 237.785 M164.063 251.921 C 165.459 252.358,167.920 253.423,169.531 254.287 C 184.182 262.147,188.855 262.341,202.464 255.649 C 211.911 251.004,217.494 249.850,223.888 251.221 C 228.084 252.121,229.463 255.381,226.783 258.061 L 225.441 259.403 221.412 259.163 C 216.026 258.842,212.926 259.666,205.273 263.453 C 190.536 270.746,183.000 270.683,168.697 263.150 C 158.431 257.743,152.655 257.733,142.969 263.104 C 129.668 270.480,121.369 270.659,107.617 263.866 C 95.657 257.957,90.648 257.781,80.926 262.928 C 69.645 268.899,62.771 270.028,60.733 266.245 C 59.061 263.139,60.813 261.004,65.697 260.198 C 68.792 259.687,73.224 257.970,76.714 255.931 C 88.266 249.181,96.491 248.975,108.483 255.134 C 122.219 262.189,126.875 262.215,140.388 255.315 C 150.131 250.339,156.216 249.467,164.063 251.921 M99.823 278.911 C 101.512 279.343,104.221 280.369,105.842 281.191 C 107.463 282.014,110.371 283.490,112.306 284.471 C 121.848 289.316,128.336 288.922,140.050 282.790 C 152.284 276.386,159.170 276.377,171.680 282.748 C 177.710 285.820,181.277 287.107,183.773 287.112 C 187.262 287.118,189.062 288.586,189.063 291.423 C 189.063 297.046,181.206 296.735,169.269 290.641 C 157.882 284.826,153.838 284.821,142.519 290.606 C 128.318 297.865,120.584 297.906,106.710 290.797 C 95.426 285.014,90.879 284.911,80.480 290.201 C 69.413 295.832,63.098 296.813,60.920 293.240 C 59.087 290.234,61.022 287.109,64.717 287.109 C 67.444 287.109,71.846 285.574,77.667 282.590 C 86.462 278.084,92.601 277.064,99.823 278.911 M100.977 308.703 C 102.480 309.228,106.283 310.981,109.428 312.600 C 115.036 315.486,118.950 316.797,121.963 316.797 C 125.457 316.797,127.113 321.635,124.360 323.801 C 121.520 326.035,116.398 325.058,107.213 320.532 C 94.922 314.474,91.480 314.419,79.688 320.088 C 69.599 324.938,64.105 325.901,61.484 323.281 C 58.331 320.128,60.495 316.787,66.016 316.284 C 69.417 315.974,72.195 314.972,78.711 311.704 C 87.719 307.186,94.147 306.320,100.977 308.703 "
              stroke="none" fill="none" fill-rule="evenodd"></path>
        <path id="path2"
              d="M292.285 64.342 C 292.876 64.432,293.843 64.432,294.434 64.342 C 295.024 64.253,294.541 64.180,293.359 64.180 C 292.178 64.180,291.694 64.253,292.285 64.342 M201.456 70.594 C 202.150 70.681,203.380 70.682,204.191 70.598 C 205.001 70.513,204.434 70.442,202.930 70.441 C 201.426 70.439,200.763 70.508,201.456 70.594 M283.097 122.938 C 283.790 123.024,285.021 123.026,285.831 122.941 C 286.642 122.857,286.074 122.786,284.570 122.784 C 283.066 122.783,282.403 122.852,283.097 122.938 M278.613 131.519 C 278.989 131.618,279.604 131.618,279.980 131.519 C 280.356 131.421,280.049 131.341,279.297 131.341 C 278.545 131.341,278.237 131.421,278.613 131.519 M133.008 137.109 C 133.847 137.969,134.621 138.672,134.729 138.672 C 134.836 138.672,134.238 137.969,133.398 137.109 C 132.559 136.250,131.785 135.547,131.677 135.547 C 131.570 135.547,132.169 136.250,133.008 137.109 M274.325 239.063 C 274.325 240.029,274.401 240.425,274.494 239.941 C 274.588 239.458,274.588 238.667,274.494 238.184 C 274.401 237.700,274.325 238.096,274.325 239.063 "
              stroke="none" fill="none" fill-rule="evenodd"></path>
        <path id="path3" d="" stroke="none" fill="none" fill-rule="evenodd"></path>
        <path id="path4"
              d="M282.130 254.102 C 282.134 254.961,282.214 255.267,282.308 254.781 C 282.401 254.295,282.397 253.592,282.300 253.218 C 282.202 252.845,282.125 253.242,282.130 254.102 "
              stroke="none" fill="none" fill-rule="evenodd"></path>
    </g>
</svg>